<?xml version="1.0" standalone="no"?>
<!DOCTYPE svg PUBLIC "-//W3C//DTD SVG 20010904//EN"
 "http://www.w3.org/TR/2001/REC-SVG-20010904/DTD/svg10.dtd">
<svg version="1.0" xmlns="http://www.w3.org/2000/svg"
 width="260.000000pt" height="260.000000pt" viewBox="0 0 260.000000 260.000000"
 preserveAspectRatio="xMidYMid meet">
<metadata>
Created by potrace 1.11, written by Peter Selinger 2001-2013
</metadata>
<g transform="translate(0.000000,260.000000) scale(0.100000,-0.100000)"
fill="#000000" stroke="none">
<path d="M1996 2567 c-35 -59 -56 -101 -56 -114 0 -7 -4 -13 -8 -13 -4 0 -8
-8 -8 -17 -1 -10 -5 -34 -9 -53 -14 -61 -9 -190 8 -206 4 -4 7 -14 7 -21 0 -8
21 -58 47 -111 41 -83 48 -106 49 -162 1 -36 -3 -78 -9 -95 -18 -54 -63 -110
-100 -124 -20 -8 -33 -19 -30 -24 4 -6 0 -8 -10 -4 -9 3 -19 2 -22 -4 -4 -5
-10 -7 -15 -4 -5 3 -11 1 -15 -5 -3 -5 -11 -10 -17 -10 -6 0 -3 11 6 24 15 24
18 55 30 376 l4 85 -50 90 c-28 50 -64 109 -80 132 -37 55 -122 143 -137 143
-6 0 -11 4 -11 9 0 9 -30 23 -55 27 -5 1 -12 3 -15 4 -20 8 -90 6 -90 -4 0 -6
-5 -4 -10 4 -5 8 -10 11 -10 5 0 -6 -34 -10 -81 -10 -90 0 -90 0 -138 -90
l-21 -40 0 103 0 102 -261 0 c-143 0 -258 -4 -255 -9 3 -4 -12 -15 -34 -24
-23 -9 -42 -11 -46 -6 -10 17 -21 9 -40 -28 -41 -79 -84 -147 -84 -132 0 9 9
52 20 95 25 101 25 104 -5 104 -14 0 -26 -1 -27 -2 -1 -2 -5 -214 -8 -473 l-5
-470 -105 -2 c-93 -2 -165 -7 -180 -13 -3 -1 -13 -1 -23 -1 -21 3 -51 -25 -42
-39 3 -5 2 -10 -3 -10 -20 0 -45 -237 -45 -420 -1 -131 8 -219 29 -310 3 -14
8 -34 10 -45 2 -11 9 -42 16 -70 7 -27 11 -53 10 -57 -1 -5 2 -8 6 -8 4 0 8
-9 9 -21 1 -11 11 -39 22 -63 12 -23 21 -47 21 -52 0 -12 60 -127 70 -134 4
-3 15 -20 24 -38 9 -18 24 -36 32 -39 7 -3 14 -10 14 -16 0 -17 121 -127 133
-120 6 4 7 1 3 -6 -5 -8 0 -14 13 -18 12 -3 21 -9 21 -14 0 -5 7 -9 15 -9 8 0
15 -4 15 -10 0 -5 7 -10 15 -10 8 0 15 -4 15 -9 0 -5 14 -14 30 -20 17 -5 30
-8 30 -5 0 3 7 -2 16 -10 8 -9 24 -16 35 -16 10 0 19 -5 19 -11 0 -5 5 -7 10
-4 6 3 10 2 10 -4 0 -6 115 -10 325 -10 179 0 325 4 325 8 0 4 6 8 13 9 22 1
51 10 92 28 22 10 43 17 48 16 4 -1 7 2 7 8 0 6 3 9 8 8 12 -3 62 24 62 34 0
4 3 7 8 6 12 -3 52 13 52 22 0 4 11 11 25 14 14 4 25 11 25 17 0 6 5 7 10 4 6
-3 13 1 16 9 3 9 12 16 20 16 8 0 14 5 14 10 0 6 8 14 18 17 55 21 283 268
264 287 -3 3 -1 6 4 6 6 0 21 19 34 43 13 23 28 45 33 48 5 3 8 8 7 10 -1 2 5
22 14 44 10 22 17 42 17 45 1 3 5 11 11 18 6 6 7 12 3 12 -4 0 -3 6 3 12 8 11
29 73 37 113 44 209 47 316 18 580 -13 122 -10 239 7 272 16 31 75 103 84 103
4 0 53 42 102 87 13 12 24 20 24 18 0 -3 12 5 27 18 141 117 183 190 188 330
2 65 -17 81 -94 79 -32 0 -78 -6 -102 -13 -24 -7 -47 -12 -51 -11 -5 1 -8 -1
-8 -6 0 -4 -14 -13 -31 -21 -36 -16 -105 -83 -114 -111 -9 -28 -25 -25 -19 3
11 53 1 181 -16 202 -5 7 -7 14 -4 17 6 7 -46 118 -56 118 -4 0 -10 9 -13 20
-3 11 -12 20 -21 20 -9 0 -16 5 -16 12 0 6 -3 8 -7 5 -3 -4 -11 -3 -17 2 -8 7
-18 -1 -30 -22z m-1440 -139 c-1 -12 8 -46 21 -76 26 -60 28 -68 11 -70 -7 0
-24 -3 -38 -6 -16 -4 -31 1 -46 15 -21 19 -22 23 -8 44 8 12 11 25 7 28 -3 4
-2 7 4 7 6 0 14 12 19 28 9 32 11 40 13 47 0 3 5 5 11 5 5 0 8 -10 6 -22z"/>
</g>
</svg>
